<?xml version="1.0" encoding="UTF-8" standalone="no"?>
<!DOCTYPE svg PUBLIC "-//W3C//DTD SVG 1.1//EN" "http://www.w3.org/Graphics/SVG/1.1/DTD/svg11.dtd">
<!-- Created with Vectornator (http://vectornator.io/) -->
<svg height="100%" stroke-miterlimit="10" style="fill-rule:nonzero;clip-rule:evenodd;stroke-linecap:round;stroke-linejoin:round;" version="1.1" viewBox="0 0 665 435" width="100%" xmlSpace="preserve" xmlns="http://www.w3.org/2000/svg" xmlnsVectornator="http://vectornator.io" xmlnsXlink="http://www.w3.org/1999/xlink">
<defs/>
<g id="Layer-1" vectornatorLayerName="Layer 1">
<g fill="#000000" opacity="1" stroke="none" vectornatorLayerName="Text 1">
<path d="M46.6172 197.545L90.1963 292.564L137.193 182.335L184.532 292.564L227.599 197.545L270.665 197.545L183.507 376.476L137.193 269.322L90.3672 376.476L3.37988 197.545L46.6172 197.545Z"/>
<path d="M289.665 75.3525L328.117 75.3525L328.117 211.388C341.789 199.083 356.885 192.931 373.405 192.931C392.204 192.931 407.243 199.026 418.522 211.217C428.093 221.813 432.878 238.731 432.878 261.974L432.878 364L394.426 364L394.426 265.562C394.426 252.232 392.062 242.577 387.333 236.595C382.605 230.614 375 227.623 364.518 227.623C351.074 227.623 341.618 231.782 336.149 240.099C330.794 248.53 328.117 262.999 328.117 283.507L328.117 364L289.665 364L289.665 75.3525Z"/>
<path d="M535.276 250.011L449.143 100.133L494.944 100.133L555.271 205.577L615.769 100.133L661.57 100.133L575.095 250.011L575.095 364L535.276 364L535.276 250.011Z"/>
</g>
</g>
</svg>
